<svg width="22" height="17" viewBox="0 0 22 17" fill="none" xmlns="http://www.w3.org/2000/svg">
<path d="M1 6C1 8.65216 2.05357 11.1957 3.92893 13.0711C5.8043 14.9464 8.34784 16 11 16C13.6522 16 16.1957 14.9464 18.0711 13.0711C19.9464 11.1957 21 8.65216 21 6" stroke="#FED16A" stroke-width="2" stroke-linecap="round" stroke-linejoin="round"/>
<path d="M21 6C18.3478 6 15.8043 7.05357 13.9289 8.92893C12.0536 10.8043 11 13.3478 11 16C11 14.6868 10.7413 13.3864 10.2388 12.1732C9.73625 10.9599 8.99965 9.85752 8.07107 8.92893C7.14248 8.00035 6.04009 7.26375 4.82683 6.7612C3.61358 6.25866 2.31322 6 1 6" stroke="#FED16A" stroke-width="2" stroke-linecap="round" stroke-linejoin="round"/>
<path d="M13.99 8.5C14.0595 7.10848 13.8284 5.71832 13.3124 4.42412C12.7965 3.12992 12.0078 1.96205 11 1C9.99222 1.96205 9.20352 3.12992 8.68757 4.42412C8.17161 5.71832 7.94051 7.10848 8.01 8.5" stroke="#FED16A" stroke-width="2" stroke-linecap="round" stroke-linejoin="round"/>
</svg>
