<svg width="91" height="90" viewBox="0 0 91 90" fill="none" xmlns="http://www.w3.org/2000/svg">
<path d="M60.9593 11.2502C60.9593 10.2557 61.3544 9.30181 62.0578 8.59853C62.7611 7.89526 63.715 7.50016 64.7097 7.50016C65.7044 7.50016 66.6583 7.89526 67.3617 8.59853C68.065 9.30181 68.4602 10.2557 68.4602 11.2502C68.4602 12.2448 68.065 13.1987 67.3617 13.9019C66.6583 14.6052 65.7044 15.0003 64.7097 15.0003C63.715 15.0003 62.7611 14.6052 62.0578 13.9019C61.3544 13.1987 60.9593 12.2448 60.9593 11.2502ZM64.7097 9.87667e-07C62.5425 -0.000906871 60.4211 0.624078 58.6005 1.79983C56.78 2.97558 55.3378 4.65205 54.4473 6.62773C53.5568 8.6034 53.2559 10.7942 53.5808 12.9368C53.9057 15.0793 54.8426 17.0825 56.2787 18.7054L51.6057 27.1131C48.9408 26.2731 46.122 26.0393 43.3551 26.4286C40.5882 26.8179 37.9434 27.8205 35.6138 29.3631L29.8607 23.5955C31.0046 21.2007 31.2651 18.4787 30.596 15.9105C29.9269 13.3422 28.3714 11.0932 26.2043 9.5609C24.0372 8.02859 21.3981 7.31167 18.7535 7.53683C16.1089 7.762 13.629 8.91477 11.7522 10.7914C9.8754 12.668 8.72252 15.1476 8.49733 17.792C8.27214 20.4364 8.98913 23.0752 10.5216 25.2421C12.054 27.409 14.3033 28.9644 16.8718 29.6334C19.4402 30.3024 22.1625 30.042 24.5575 28.8981L30.3107 34.6582C28.7642 36.986 27.7598 39.6311 27.3717 42.3985C26.9835 45.166 27.2215 47.9853 28.0679 50.6486L19.6595 55.3212C17.6701 53.5644 15.1237 52.5673 12.4703 52.5062C9.8169 52.4451 7.2273 53.3239 5.15921 54.9873C3.09113 56.6507 1.67771 58.9916 1.16877 61.5962C0.659833 64.2008 1.08814 66.9015 2.378 69.2209C3.66786 71.5403 5.73622 73.3291 8.21751 74.2711C10.6988 75.2131 13.4333 75.2477 15.9376 74.3688C18.4419 73.4899 20.5549 71.754 21.9031 69.468C23.2512 67.182 23.7477 64.493 23.3049 61.8763L31.7209 57.2037C33.7299 59.5477 36.2865 61.3594 39.1639 62.478C42.0413 63.5967 45.1505 63.9877 48.2153 63.6164L50.3005 69.8715C48.2061 71.5014 46.7552 73.8192 46.2045 76.4153C45.6538 79.0113 46.0386 81.7184 47.2909 84.0582C48.5432 86.398 50.5825 88.2198 53.0482 89.2017C55.5139 90.1835 58.2474 90.2622 60.7655 89.4238C63.2836 88.5854 65.4243 86.8839 66.8092 84.62C68.194 82.3561 68.7339 79.6756 68.3334 77.0521C67.9329 74.4287 66.6178 72.0313 64.6206 70.2836C62.6233 68.5359 60.0725 67.5505 57.4189 67.5014L55.3261 61.2463C59.3166 58.9438 62.3769 55.2162 63.8096 50.7536L68.7527 51.3086C69.3568 53.8928 70.8552 56.1802 72.9829 57.7666C75.1106 59.353 77.7307 60.1362 80.3801 59.9779C83.0295 59.8195 85.5376 58.7297 87.4611 56.9011C89.3846 55.0725 90.5997 52.6229 90.8917 49.9851C91.1836 47.3474 90.5336 44.6913 89.0564 42.4865C87.5793 40.2816 85.3702 38.6698 82.8196 37.936C80.2689 37.2022 77.541 37.3937 75.1178 38.4765C72.6947 39.5594 70.7324 41.4639 69.5778 43.8534L64.6272 43.3059C64.1869 38.4436 61.8673 33.9446 58.1614 30.7657L62.842 22.343C63.4371 22.448 64.0596 22.5005 64.7097 22.5005C67.6938 22.5005 70.5556 21.3152 72.6656 19.2054C74.7756 17.0955 75.961 14.234 75.961 11.2502C75.961 8.26649 74.7756 5.40495 72.6656 3.29512C70.5556 1.18529 67.6938 1.03213e-06 64.7097 9.87667e-07ZM19.7045 15.0003C20.6991 15.0003 21.6531 15.3954 22.3564 16.0987C23.0598 16.802 23.4549 17.7558 23.4549 18.7504C23.4549 19.745 23.0598 20.6988 22.3564 21.4021C21.6531 22.1054 20.6991 22.5005 19.7045 22.5005C18.7098 22.5005 17.7558 22.1054 17.0525 21.4021C16.3492 20.6988 15.954 19.745 15.954 18.7504C15.954 17.7558 16.3492 16.802 17.0525 16.0987C17.7558 15.3954 18.7098 15.0003 19.7045 15.0003ZM12.2036 60.0013C13.1983 60.0013 14.1522 60.3964 14.8555 61.0997C15.5589 61.8029 15.954 62.7568 15.954 63.7514C15.954 64.7459 15.5589 65.6998 14.8555 66.4031C14.1522 67.1063 13.1983 67.5014 12.2036 67.5014C11.2089 67.5014 10.255 67.1063 9.55163 66.4031C8.84829 65.6998 8.45315 64.7459 8.45315 63.7514C8.45315 62.7568 8.84829 61.8029 9.55163 61.0997C10.255 60.3964 11.2089 60.0013 12.2036 60.0013ZM53.4584 78.7517C53.4584 77.7571 53.8535 76.8032 54.5569 76.1C55.2602 75.3967 56.2142 75.0016 57.2088 75.0016C58.2035 75.0016 59.1575 75.3967 59.8608 76.1C60.5641 76.8032 60.9593 77.7571 60.9593 78.7517C60.9593 79.7463 60.5641 80.7001 59.8608 81.4034C59.1575 82.1067 58.2035 82.5018 57.2088 82.5018C56.2142 82.5018 55.2602 82.1067 54.5569 81.4034C53.8535 80.7001 53.4584 79.7463 53.4584 78.7517ZM79.7115 45.001C80.7061 45.001 81.6601 45.3961 82.3634 46.0993C83.0668 46.8026 83.4619 47.7565 83.4619 48.751C83.4619 49.7456 83.0668 50.6995 82.3634 51.4028C81.6601 52.106 80.7061 52.5011 79.7115 52.5011C78.7168 52.5011 77.7628 52.106 77.0595 51.4028C76.3562 50.6995 75.961 49.7456 75.961 48.751C75.961 47.7565 76.3562 46.8026 77.0595 46.0993C77.7628 45.3961 78.7168 45.001 79.7115 45.001ZM45.9575 33.7507C48.9416 33.7507 51.8034 34.936 53.9134 37.0458C56.0234 39.1557 57.2088 42.0172 57.2088 45.001C57.2088 47.9847 56.0234 50.8463 53.9134 52.9561C51.8034 55.0659 48.9416 56.2512 45.9575 56.2512C42.9735 56.2512 40.1117 55.0659 38.0016 52.9561C35.8916 50.8463 34.7062 47.9847 34.7062 45.001C34.7062 42.0172 35.8916 39.1557 38.0016 37.0458C40.1117 34.936 42.9735 33.7507 45.9575 33.7507Z" fill="#4C7033"/>
</svg>
