<svg width="102" height="92" viewBox="0 0 102 92" fill="none" xmlns="http://www.w3.org/2000/svg">
<path d="M102 9.66V1.38L93.2986 0.46C92.8152 0.46 89.9147 0 85.0806 0C65.2607 0 50.7583 5.52 42.5403 15.18C36.2559 11.5 27.5545 9.2 17.4028 9.2C12.5687 9.2 9.18483 9.66 9.18483 9.66L0 11.04L0.483412 18.86C0.966825 32.66 8.21801 58.88 33.3554 58.88H34.3223V74.52C15.9526 76.82 0.483412 82.8 0.483412 82.8V92H97.1659V82.8C97.1659 82.8 81.6967 76.82 63.327 74.52V59.8C93.782 59.34 102 26.68 102 9.66ZM48.8246 73.6H43.9905V47.84C43.9905 47.84 43.0237 32.2 29.4882 32.2C29.4882 32.2 36.7393 35.88 38.673 49.22C36.7393 49.68 34.8057 49.68 33.3554 49.68C11.1185 49.68 10.1517 18.86 10.1517 18.86C10.1517 18.86 13.0521 18.4 17.4028 18.4C26.5877 18.4 41.5735 20.24 45.9242 32.66C48.3412 11.96 72.9953 9.2 85.0806 9.2C89.4313 9.2 92.3318 9.66 92.3318 9.66C92.3318 9.66 92.3318 51.06 61.8768 51.06H58.4929C58.4929 41.86 68.1611 28.06 68.1611 28.06C53.6588 32.66 53.6588 50.6 53.6588 50.6V73.6H48.8246Z" fill="#4C7033"/>
</svg>
