<svg width="36" height="36" viewBox="0 0 36 36" fill="none" xmlns="http://www.w3.org/2000/svg">
<path fill-rule="evenodd" clip-rule="evenodd" d="M26 0C28.6522 0 31.1957 1.05357 33.0711 2.92893C34.9464 4.8043 36 7.34784 36 10V26C36 28.6522 34.9464 31.1957 33.0711 33.0711C31.1957 34.9464 28.6522 36 26 36H10C7.34784 36 4.8043 34.9464 2.92893 33.0711C1.05357 31.1957 0 28.6522 0 26V10C0 7.34784 1.05357 4.8043 2.92893 2.92893C4.8043 1.05357 7.34784 0 10 0H26ZM26 4H10C8.4087 4 6.88258 4.63214 5.75736 5.75736C4.63214 6.88258 4 8.4087 4 10V26C4 27.5913 4.63214 29.1174 5.75736 30.2426C6.88258 31.3679 8.4087 32 10 32H26C27.5913 32 29.1174 31.3679 30.2426 30.2426C31.3679 29.1174 32 27.5913 32 26V10C32 8.4087 31.3679 6.88258 30.2426 5.75736C29.1174 4.63214 27.5913 4 26 4ZM18 10C20.1217 10 22.1566 10.8429 23.6569 12.3431C25.1571 13.8434 26 15.8783 26 18C26 20.1217 25.1571 22.1566 23.6569 23.6569C22.1566 25.1571 20.1217 26 18 26C15.8783 26 13.8434 25.1571 12.3431 23.6569C10.8429 22.1566 10 20.1217 10 18C10 15.8783 10.8429 13.8434 12.3431 12.3431C13.8434 10.8429 15.8783 10 18 10ZM18 14C16.9391 14 15.9217 14.4214 15.1716 15.1716C14.4214 15.9217 14 16.9391 14 18C14 19.0609 14.4214 20.0783 15.1716 20.8284C15.9217 21.5786 16.9391 22 18 22C19.0609 22 20.0783 21.5786 20.8284 20.8284C21.5786 20.0783 22 19.0609 22 18C22 16.9391 21.5786 15.9217 20.8284 15.1716C20.0783 14.4214 19.0609 14 18 14ZM27 7C27.5304 7 28.0391 7.21071 28.4142 7.58579C28.7893 7.96086 29 8.46957 29 9C29 9.53043 28.7893 10.0391 28.4142 10.4142C28.0391 10.7893 27.5304 11 27 11C26.4696 11 25.9609 10.7893 25.5858 10.4142C25.2107 10.0391 25 9.53043 25 9C25 8.46957 25.2107 7.96086 25.5858 7.58579C25.9609 7.21071 26.4696 7 27 7Z" fill="white"/>
</svg>
