<svg width="64" height="60" viewBox="0 0 64 60" fill="none" xmlns="http://www.w3.org/2000/svg">
<path d="M63.5625 32.625L58.3125 27.375C58.1042 27.1667 57.875 27.0625 57.625 27.0625C57.375 27.0625 57.1667 27.1667 57 27.375C56.7917 27.5417 56.6875 27.7604 56.6875 28.0312C56.6875 28.3021 56.7917 28.5208 57 28.6875L62 33.6875L60 35.6875L48.9375 24.625C49.1458 24.5 49.3333 24.3542 49.5 24.1875C49.6667 24.0208 49.8333 23.8542 50 23.6875C50.1667 23.5208 50.3333 23.3542 50.5 23.1875C50.6667 23.0208 50.8125 22.8333 50.9375 22.625L53.875 25.5625C54.0417 25.7708 54.2604 25.875 54.5312 25.875C54.8021 25.875 55.0208 25.7708 55.1875 25.5625C55.3542 25.3958 55.4375 25.1771 55.4375 24.9062C55.4375 24.6354 55.3542 24.4167 55.1875 24.25L52.0625 21.125C53.6042 18.5 54.2083 15.6354 53.875 12.5312C53.5417 9.42708 52.25 6.75 50 4.5C48.7083 3.25 47.2396 2.28125 45.5938 1.59375C43.9479 0.90625 42.2292 0.5625 40.4375 0.5625C38.6042 0.5625 36.8646 0.90625 35.2188 1.59375C33.5729 2.28125 32.1042 3.25 30.8125 4.5C29.4792 5.83333 28.5 7.33333 27.875 9C27.2083 10.6667 26.875 12.3646 26.875 14.0938C26.875 15.8229 27.2083 17.5208 27.875 19.1875C28.5 20.8542 29.4792 22.3542 30.8125 23.6875C32.1458 25.0208 33.6458 26.0208 35.3125 26.6875C36.9792 27.3542 38.6875 27.6875 40.4375 27.6875C41.6458 27.6875 42.8438 27.5208 44.0312 27.1875C45.2188 26.8542 46.3333 26.375 47.375 25.75L58.875 37.25C59.0417 37.4167 59.2188 37.5312 59.4062 37.5938C59.5938 37.6562 59.7917 37.6875 60 37.6875C60.2083 37.6875 60.4062 37.6562 60.5938 37.5938C60.7812 37.5312 60.9583 37.4167 61.125 37.25L63.5625 34.8125C63.8542 34.5208 64 34.1562 64 33.7188C64 33.2812 63.8542 32.9167 63.5625 32.625ZM40.4375 25.8125C38.9375 25.8125 37.4688 25.5208 36.0312 24.9375C34.5938 24.3542 33.2917 23.5 32.125 22.375C29.875 20.0833 28.75 17.3229 28.75 14.0938C28.75 10.8646 29.875 8.125 32.125 5.875C33.25 4.75 34.5208 3.89583 35.9375 3.3125C37.3542 2.72917 38.8542 2.4375 40.4375 2.4375C41.9792 2.4375 43.4583 2.72917 44.875 3.3125C46.2917 3.89583 47.5625 4.75 48.6875 5.875C50.9375 8.125 52.0625 10.8646 52.0625 14.0938C52.0625 17.3229 50.9375 20.0833 48.6875 22.375C47.5208 23.5 46.2188 24.3542 44.7812 24.9375C43.3438 25.5208 41.8958 25.8125 40.4375 25.8125ZM47.4375 7.125C46.4792 6.16667 45.3958 5.4375 44.1875 4.9375C42.9792 4.4375 41.7292 4.1875 40.4375 4.1875C39.1042 4.1875 37.8333 4.4375 36.625 4.9375C35.4167 5.4375 34.3333 6.16667 33.375 7.125C32.4583 8.04167 31.75 9.10417 31.25 10.3125C30.75 11.5208 30.5 12.7917 30.5 14.125C30.5 15.4583 30.75 16.7188 31.25 17.9062C31.75 19.0938 32.4583 20.1667 33.375 21.125C34.375 22.0833 35.4792 22.8021 36.6875 23.2812C37.8958 23.7604 39.1458 24 40.4375 24C41.6875 24 42.9271 23.7604 44.1562 23.2812C45.3854 22.8021 46.4792 22.0833 47.4375 21.125C48.3542 20.1667 49.0625 19.0938 49.5625 17.9062C50.0625 16.7188 50.3125 15.4583 50.3125 14.125C50.3125 12.7917 50.0625 11.5208 49.5625 10.3125C49.0625 9.10417 48.3542 8.04167 47.4375 7.125ZM46.0625 19.8125C45.3125 20.6042 44.4375 21.1875 43.4375 21.5625C42.4375 21.9375 41.4375 22.125 40.4375 22.125C39.3958 22.125 38.375 21.9271 37.375 21.5312C36.375 21.1354 35.5 20.5625 34.75 19.8125C33.9583 19.0208 33.3646 18.1458 32.9688 17.1875C32.5729 16.2292 32.375 15.2083 32.375 14.125C32.375 13.0417 32.5729 12.0104 32.9688 11.0312C33.3646 10.0521 33.9583 9.1875 34.75 8.4375C35.5 7.6875 36.3646 7.10417 37.3438 6.6875C38.3229 6.27083 39.3542 6.0625 40.4375 6.0625C41.4792 6.0625 42.4896 6.27083 43.4688 6.6875C44.4479 7.10417 45.3125 7.6875 46.0625 8.4375C46.8542 9.1875 47.4479 10.0521 47.8438 11.0312C48.2396 12.0104 48.4375 13.0417 48.4375 14.125C48.4375 15.2083 48.2396 16.2292 47.8438 17.1875C47.4479 18.1458 46.8542 19.0208 46.0625 19.8125ZM51.375 41.0625C51.2083 41.2708 51.1458 41.5 51.1875 41.75C51.2292 42 51.3542 42.2083 51.5625 42.375C51.7708 42.5 52 42.5521 52.25 42.5312C52.5 42.5104 52.7083 42.3958 52.875 42.1875C52.9167 42.1458 52.9479 42.1042 52.9688 42.0625C52.9896 42.0208 53.0208 41.9792 53.0625 41.9375C54.0208 40.5625 54.3646 39.1875 54.0938 37.8125C53.8229 36.4375 53.25 35.3125 52.375 34.4375C51.5 33.5208 50.375 32.9271 49 32.6562C47.625 32.3854 46.2292 32.75 44.8125 33.75C44.6042 33.9167 44.3854 34.0938 44.1562 34.2812C43.9271 34.4688 43.7083 34.6667 43.5 34.875C42.2083 36.125 41.3333 37.625 40.875 39.375C40.4167 41.125 40.3958 42.875 40.8125 44.625L38.3125 47.125L35.875 44.625C36.2917 42.875 36.2708 41.125 35.8125 39.375C35.3542 37.625 34.4792 36.125 33.1875 34.875C32.9792 34.6667 32.7604 34.4688 32.5312 34.2812C32.3021 34.0938 32.0833 33.9167 31.875 33.75C31.4167 33.4167 30.9688 33.1667 30.5312 33C30.0938 32.8333 29.6458 32.7292 29.1875 32.6875C28.1875 31.4375 27.0417 30.3646 25.75 29.4688C24.4583 28.5729 23.0625 27.8958 21.5625 27.4375V23.9375C21.5625 23.6875 21.4688 23.4688 21.2812 23.2812C21.0938 23.0938 20.875 23 20.625 23C20.375 23 20.1562 23.0938 19.9688 23.2812C19.7812 23.4688 19.6875 23.6875 19.6875 23.9375V27.625C19.6875 28 19.7917 28.3229 20 28.5938C20.2083 28.8646 20.4792 29.0417 20.8125 29.125C21.9375 29.5 23.0208 30 24.0625 30.625C25.1042 31.25 26.0417 32 26.875 32.875C26.375 33.0417 25.9062 33.25 25.4688 33.5C25.0312 33.75 24.6458 34.0625 24.3125 34.4375C24.1458 34.5625 24 34.7083 23.875 34.875C23.75 35.0417 23.625 35.2292 23.5 35.4375H7.0625C6.77083 35.4375 6.51042 35.5 6.28125 35.625C6.05208 35.75 5.85417 35.9375 5.6875 36.1875C5.0625 37.1875 4.57292 38.2708 4.21875 39.4375C3.86458 40.6042 3.6875 41.7917 3.6875 43C3.6875 44.75 4.02083 46.4167 4.6875 48C5.35417 49.5417 6.27083 50.8854 7.4375 52.0312C8.60417 53.1771 9.95833 54.0833 11.5 54.75C13.0417 55.4167 14.6875 55.75 16.4375 55.75C19.4792 55.75 22.1562 54.8021 24.4688 52.9062C26.7812 51.0104 28.25 48.625 28.875 45.75C29.1667 45.875 29.4583 45.9688 29.75 46.0312C30.0417 46.0938 30.3333 46.1458 30.625 46.1875C30.3333 47.5208 29.8542 48.8021 29.1875 50.0312C28.5208 51.2604 27.6667 52.375 26.625 53.375C25.25 54.75 23.6562 55.8021 21.8438 56.5312C20.0312 57.2604 18.1458 57.6042 16.1875 57.5625C14.3125 57.5625 12.5 57.1875 10.75 56.4375C9 55.6875 7.45833 54.625 6.125 53.25C4.79167 51.9167 3.75 50.375 3 48.625C2.25 46.875 1.875 45.0625 1.875 43.1875C1.875 41.5625 2.11458 40.0104 2.59375 38.5312C3.07292 37.0521 3.77083 35.6667 4.6875 34.375C5.60417 33.125 6.69792 32.0521 7.96875 31.1562C9.23958 30.2604 10.6042 29.5833 12.0625 29.125C12.3958 29.0417 12.6667 28.8646 12.875 28.5938C13.0833 28.3229 13.1875 28 13.1875 27.625V17H19.6875V19.5C19.6875 19.75 19.7812 19.9688 19.9688 20.1562C20.1562 20.3438 20.375 20.4375 20.625 20.4375C20.875 20.4375 21.0938 20.3438 21.2812 20.1562C21.4688 19.9688 21.5625 19.75 21.5625 19.5V17H22.375C23 17 23.5208 16.7917 23.9375 16.375C24.3542 15.9583 24.5625 15.4375 24.5625 14.8125V12.25C24.5625 11.6667 24.3542 11.1562 23.9375 10.7188C23.5208 10.2812 23 10.0625 22.375 10.0625H10.4375C9.85417 10.0625 9.34375 10.2812 8.90625 10.7188C8.46875 11.1562 8.25 11.6667 8.25 12.25V14.8125C8.25 15.4375 8.46875 15.9583 8.90625 16.375C9.34375 16.7917 9.85417 17 10.4375 17H11.3125V27.4375C9.6875 27.9375 8.1875 28.6979 6.8125 29.7188C5.4375 30.7396 4.22917 31.9167 3.1875 33.25C2.14583 34.7083 1.35417 36.2812 0.8125 37.9688C0.270833 39.6562 0 41.3958 0 43.1875C0.0416667 45.3125 0.46875 47.3646 1.28125 49.3438C2.09375 51.3229 3.27083 53.0833 4.8125 54.625C6.3125 56.125 8.04167 57.2917 10 58.125C11.9583 58.9583 14.0208 59.3958 16.1875 59.4375C16.2292 59.4375 16.2708 59.4375 16.3125 59.4375C16.3542 59.4375 16.3958 59.4375 16.4375 59.4375C17.6875 59.4375 18.9062 59.3021 20.0938 59.0312C21.2812 58.7604 22.4167 58.375 23.5 57.875H52.125C52.375 57.875 52.5938 57.7812 52.7812 57.5938C52.9688 57.4062 53.0625 57.1875 53.0625 56.9375C53.0625 56.6875 52.9688 56.4688 52.7812 56.2812C52.5938 56.0938 52.375 56 52.125 56H39.25V48.8125L42.125 45.9375C42.5417 46.0625 42.9583 46.1458 43.375 46.1875C43.7917 46.2292 44.2083 46.25 44.625 46.25C45.4167 46.25 46.1875 46.1667 46.9375 46C47.6875 45.8333 48.4167 45.5833 49.125 45.25C49.375 45.125 49.5417 44.9375 49.625 44.6875C49.7083 44.4375 49.6875 44.2083 49.5625 44C49.4792 43.75 49.3125 43.5833 49.0625 43.5C48.8125 43.4167 48.5625 43.4375 48.3125 43.5625C47.6042 43.8958 46.8646 44.1354 46.0938 44.2812C45.3229 44.4271 44.5417 44.4583 43.75 44.375L48.25 39.875C48.4167 39.7083 48.5 39.4896 48.5 39.2188C48.5 38.9479 48.4167 38.7292 48.25 38.5625C48.0417 38.3542 47.8125 38.25 47.5625 38.25C47.3125 38.25 47.0833 38.3542 46.875 38.5625L42.4375 43C42.3125 41.75 42.4583 40.5312 42.875 39.3438C43.2917 38.1562 43.9583 37.1042 44.875 36.1875C45.0417 36.0208 45.2083 35.8646 45.375 35.7188C45.5417 35.5729 45.7292 35.4167 45.9375 35.25C46.9375 34.5417 47.8958 34.3021 48.8125 34.5312C49.7292 34.7604 50.4792 35.1667 51.0625 35.75C51.6042 36.2917 51.9896 37.0312 52.2188 37.9688C52.4479 38.9062 52.2083 39.875 51.5 40.875C51.5 40.875 51.4896 40.8958 51.4688 40.9375C51.4479 40.9792 51.4167 41.0208 51.375 41.0625ZM10.4375 15.125C10.3542 15.125 10.2812 15.0938 10.2188 15.0312C10.1562 14.9688 10.125 14.8958 10.125 14.8125V12.25C10.125 12.1667 10.1562 12.0938 10.2188 12.0312C10.2812 11.9688 10.3542 11.9375 10.4375 11.9375H22.375C22.4583 11.9375 22.5312 11.9688 22.5938 12.0312C22.6562 12.0938 22.6875 12.1667 22.6875 12.25V14.8125C22.6875 14.8958 22.6562 14.9688 22.5938 15.0312C22.5312 15.0938 22.4583 15.125 22.375 15.125H10.4375ZM7.1875 37.3125H22.6875C22.6042 37.6042 22.5521 37.9062 22.5312 38.2188C22.5104 38.5312 22.5208 38.8542 22.5625 39.1875H6.3125C6.39583 38.8542 6.52083 38.5312 6.6875 38.2188C6.85417 37.9062 7.02083 37.6042 7.1875 37.3125ZM16.4375 53.875C13.4375 53.875 10.875 52.8125 8.75 50.6875C6.625 48.5625 5.5625 46 5.5625 43C5.5625 42.6667 5.58333 42.3333 5.625 42C5.66667 41.6667 5.70833 41.3542 5.75 41.0625H23.125C23.2083 41.1875 23.2917 41.3229 23.375 41.4688C23.4583 41.6146 23.5417 41.7708 23.625 41.9375C23.7917 42.1875 23.9688 42.4167 24.1562 42.625C24.3438 42.8333 24.5417 43.0417 24.75 43.25C25.125 43.5833 25.5104 43.9062 25.9062 44.2188C26.3021 44.5312 26.7083 44.7917 27.125 45C26.6667 47.5417 25.4375 49.6562 23.4375 51.3438C21.4375 53.0312 19.1042 53.875 16.4375 53.875ZM26.0625 41.9375C25.8958 41.7708 25.7396 41.5938 25.5938 41.4062C25.4479 41.2188 25.3125 41.0417 25.1875 40.875C24.4792 39.875 24.2396 38.9062 24.4688 37.9688C24.6979 37.0312 25.0833 36.2917 25.625 35.75C25.9583 35.4167 26.375 35.125 26.875 34.875C27.375 34.625 27.9167 34.5 28.5 34.5C28.875 34.5 29.25 34.5625 29.625 34.6875C30 34.8125 30.375 35 30.75 35.25C30.9583 35.4167 31.1458 35.5729 31.3125 35.7188C31.4792 35.8646 31.6458 36.0208 31.8125 36.1875C32.7292 37.1042 33.3958 38.1562 33.8125 39.3438C34.2292 40.5312 34.375 41.75 34.25 43L29.8125 38.5625C29.6042 38.3542 29.375 38.25 29.125 38.25C28.875 38.25 28.6458 38.3542 28.4375 38.5625C28.2708 38.7292 28.1875 38.9479 28.1875 39.2188C28.1875 39.4896 28.2708 39.7083 28.4375 39.875L32.9375 44.375C31.6875 44.5 30.4583 44.3542 29.25 43.9375C28.0417 43.5208 26.9792 42.8542 26.0625 41.9375ZM37.375 56H26.5C26.75 55.7917 27 55.5833 27.25 55.375C27.5 55.1667 27.7292 54.9583 27.9375 54.75C29.1458 53.5833 30.1354 52.2708 30.9062 50.8125C31.6771 49.3542 32.2292 47.8333 32.5625 46.25C32.8958 46.25 33.2292 46.2188 33.5625 46.1562C33.8958 46.0938 34.2292 46.0208 34.5625 45.9375L37.375 48.8125V56ZM14.1875 45.75C14.1875 46 14.0938 46.2188 13.9062 46.4062C13.7188 46.5938 13.5 46.6875 13.25 46.6875C13 46.6875 12.7812 46.5938 12.5938 46.4062C12.4062 46.2188 12.3125 46 12.3125 45.75C12.3125 45.5 12.4062 45.2812 12.5938 45.0938C12.7812 44.9062 13 44.8125 13.25 44.8125C13.5 44.8125 13.7188 44.9062 13.9062 45.0938C14.0938 45.2812 14.1875 45.5 14.1875 45.75ZM18.5625 49.875C18.5625 50.125 18.4688 50.3438 18.2812 50.5312C18.0938 50.7188 17.875 50.8125 17.625 50.8125C17.375 50.8125 17.1562 50.7188 16.9688 50.5312C16.7812 50.3438 16.6875 50.125 16.6875 49.875C16.6875 49.625 16.7812 49.4062 16.9688 49.2188C17.1562 49.0312 17.375 48.9375 17.625 48.9375C17.875 48.9375 18.0938 49.0312 18.2812 49.2188C18.4688 49.4062 18.5625 49.625 18.5625 49.875ZM20.3125 43.875C20.3125 44.125 20.2188 44.3438 20.0312 44.5312C19.8438 44.7188 19.625 44.8125 19.375 44.8125C19.125 44.8125 18.9062 44.7188 18.7188 44.5312C18.5312 44.3438 18.4375 44.125 18.4375 43.875C18.4375 43.625 18.5312 43.4062 18.7188 43.2188C18.9062 43.0312 19.125 42.9375 19.375 42.9375C19.625 42.9375 19.8438 43.0312 20.0312 43.2188C20.2188 43.4062 20.3125 43.625 20.3125 43.875Z" fill="#EEC044"/>
</svg>
