<svg width="42" height="42" viewBox="0 0 42 42" fill="none" xmlns="http://www.w3.org/2000/svg">
<g clip-path="url(#clip0_644_289)">
<path d="M21 3.5C30.6652 3.5 38.5 11.3348 38.5 21C38.5 30.6652 30.6652 38.5 21 38.5C18.0214 38.5044 15.0914 37.7452 12.4897 36.295L11.956 35.9835L6.65 37.5445C6.36125 37.6296 6.05556 37.6395 5.7619 37.5734C5.46824 37.5072 5.19635 37.3671 4.97199 37.1664C4.74763 36.9657 4.57825 36.7111 4.4799 36.4266C4.38155 36.1421 4.35749 35.8372 4.41 35.5407L4.4555 35.35L6.0165 30.044C4.36618 27.3163 3.49576 24.1881 3.5 21C3.5 11.3348 11.3347 3.5 21 3.5ZM21 7C18.4933 6.99955 16.0325 7.6721 13.8746 8.94743C11.7166 10.2228 9.94062 12.0541 8.73208 14.2501C7.52355 16.4462 6.92679 18.9265 7.00413 21.4319C7.08147 23.9374 7.83007 26.3761 9.17175 28.4935C9.51825 29.0395 9.667 29.7115 9.54975 30.3782L9.4815 30.6635L8.70975 33.2903L11.3365 32.5185C12.0942 32.2945 12.8817 32.431 13.5065 32.8283C15.3411 33.9899 17.4207 34.7088 19.581 34.9283C21.7413 35.1478 23.923 34.8617 25.9537 34.0928C27.9844 33.3238 29.8084 32.0931 31.2816 30.4977C32.7547 28.9024 33.8365 26.9863 34.4415 24.9009C35.0466 22.8155 35.1582 20.6179 34.7677 18.4819C34.3771 16.3459 33.4951 14.3301 32.1912 12.5937C30.8874 10.8573 29.1975 9.44796 27.2552 8.47714C25.3129 7.50633 23.1714 7.00062 21 7ZM15.9285 12.572C16.1222 12.4881 16.3345 12.4561 16.5444 12.4791C16.7543 12.5021 16.9545 12.5794 17.1255 12.7032C18.0075 13.3472 18.7075 14.2117 19.3095 15.0552L19.8817 15.8847L20.1495 16.2785C20.304 16.5044 20.3798 16.7749 20.3653 17.0481C20.3507 17.3214 20.2466 17.5823 20.069 17.7905L19.9377 17.9235L18.3207 19.124C18.2429 19.1804 18.1882 19.263 18.1666 19.3566C18.145 19.4503 18.1582 19.5485 18.2035 19.6332C18.571 20.2983 19.2202 21.2905 19.9657 22.036C20.713 22.7815 21.7507 23.4745 22.4612 23.8822C22.6152 23.9698 22.8007 23.9417 22.9267 23.828L22.9932 23.7493L24.045 22.148C24.2381 21.8908 24.5232 21.7183 24.8407 21.6668C25.1581 21.6152 25.4832 21.6886 25.7477 21.8715L26.698 22.5347C27.643 23.2085 28.5512 23.933 29.2705 24.8517C29.4042 25.0241 29.4893 25.2292 29.5167 25.4456C29.5441 25.662 29.5128 25.8818 29.4262 26.082C28.7332 27.699 26.978 29.0763 25.1545 29.0098L24.8762 28.9922L24.542 28.9608C24.4789 28.9533 24.4159 28.9451 24.353 28.9362L23.9365 28.8663C22.3195 28.5618 19.7277 27.6447 17.0415 24.9602C14.357 22.274 13.44 19.6822 13.1355 18.0653L13.0655 17.6488L13.0217 17.2847L12.999 16.9785C12.9962 16.9348 12.9939 16.891 12.992 16.8472C12.9255 15.0202 14.3097 13.265 15.9285 12.572Z" fill="white"/>
</g>
<defs>
<clipPath id="clip0_644_289">
<rect width="42" height="42" fill="white"/>
</clipPath>
</defs>
</svg>
